<?xml version="1.0" encoding="UTF-8"?>
<svg id="Layer_2" data-name="Layer 2" xmlns="http://www.w3.org/2000/svg" viewBox="0 0 847.37 323.28">
  <defs>
    <style>
      .cls-1 {
        stroke-width: 0px;
      }
    </style>
  </defs>
  <g id="Layer_1-2" data-name="Layer 1">
    <path class="cls-1" d="m842.55,193v-11.36h4.82v-20h-4.82v-30.52h-17.88v-3.43h-367.78v-2.61h378.24v-49.51h-296.2v-2.58h70.06v-9.37h216.98V23.91h-110.56V0H198.36v10.65H0v9.04h84.3v24.06H1.02v29.22h83.28v22.81h-45.75v5.5h10.66v8.13h-18.96v49.51h128.29v1.71H2.22v45.73h60.75v17.55h141.47v3.08h10.14v6.19h-8.1v-4.96H1.27v11.86h130.28v11.15H1.02v24.75h173.27v3.1h76.04v7.09H32.1v10.75h218.23v7.09H1.02v19.27h517.04v-10.48h284.16v-14.64h45.15v-6.7h-45.15v-21.17h40.24v-20.57h-89.27v-21.17h39.14v-1.56h55.03v-8.77h-55.03v-20.62h-151.26v-4.63h201.47v.02Zm-361.94-60.84v12.08h-23.72v-12.08h23.72Zm-186.39-30.85h81.36v-4.24h32.9v12.37h-114.28v-8.13h.02Zm162.67,153.04v-3.1h85.52v12.06h-21.62v-8.96h-63.92.02Zm-97.2,24.75h15.91v7.09h-15.91v-7.09Zm0,17.84h15.91v7.09h-15.91v-7.09Z"/>
  </g>
</svg>