<?xml version="1.0" encoding="UTF-8"?>
<svg id="Layer_2" data-name="Layer 2" xmlns="http://www.w3.org/2000/svg" viewBox="0 0 1077.24 639">
  <defs>
    <style>
      .cls-1 {
        stroke-width: 0px;
      }
    </style>
  </defs>
  <g id="Layer_1-2" data-name="Layer 1">
    <g>
      <polygon class="cls-1" points="673.46 77.42 673.46 95.43 867.02 95.43 867.02 118.97 797.85 118.97 797.85 136.54 811.18 136.54 811.18 130.53 1076.72 130.53 1076.72 85.7 997.53 85.7 997.53 61.53 901.88 61.53 901.88 77.42 673.46 77.42"/>
      <polygon class="cls-1" points="1077.24 158.75 1077.22 158.75 1077.22 158.76 1077.24 158.75"/>
      <path class="cls-1" d="m797.85,144.79v23.31h144.85v43h-68.87v-29.19h-110.55v-23.91H246.23v4.61h-65.19v18.98h42.89v21.03h-57.36v10.77h-32.03v6.21h32.03v34.64h43.65v20.75h-45.25v12.14h45.25v8.18h250.36v4.05H134.54v17.56h71.87v1.71h-71.87v5.18h144.85v27.94h-69.17v13.39h193.56v10.25h-228.42v6.52h76.95v3.08h10.14v6.19h-8.1v-4.96h-78.98v11.86h4.05v5.26h39.08v16.09h121.8v-16.09h63.49v10.93h176.63v-5.03h9.87v5.03h152.23v5.16h147.83v-1.26h5.87v1.26h180.52v-23.22h-223.42v11.51h-52.24v-21.17h39.14v-1.56h13.1v6.46h192.26v-.68h31.16v-7.57h-31.16v-26.68h-41.43v-9.42h72.4v-9.9h-72.4v-4.66h72.4v-28.53h-40.04v-26.56h40.25v-22.58h-141.74v-6.15h-22.74v5.21h-29.28v-5.21h-4.8v-7.4h4.8v-7.76h-296.2v-2.58h70.06v-9.37h210.18v10.98h45.25v8.73h132.3v-55.89h-49.3v-26.68h81.95v-13.96h-279.37Zm-341.51,122.64h-114.28v-8.13h81.38v-4.24h32.9v12.38Zm51.57,143.97h-3.16v-2.15h3.16v2.15Zm20.56-109.16h-23.72v-12.08h23.72v12.08Zm361.94,13.42v-25.23h20.25v60.91h32.03v10.93h-32.03v18.93h-15.43v-4.97h-55.03v-20.62h-151.26v-4.63h201.47v-11.34h4.82v-12.68h-253.49v-3.13h46.66v-8.16h202Zm-23.4-32.58v2.61h-362.27v-2.61h362.27Zm-201.44-97.63h-96.25v17.17h-72.5v-21.03h168.75v3.86Z"/>
      <polygon class="cls-1" points="175.36 398.09 49.14 398.09 49.14 386.23 175.36 386.23 175.36 381.92 110.84 381.92 110.84 364.37 50.09 364.37 50.09 318.65 134.54 318.65 134.54 316.93 78.13 316.93 78.13 313.15 32.67 313.15 32.67 411.42 48.89 411.42 48.89 409.24 179.42 409.24 179.42 403.35 175.36 403.35 175.36 398.09"/>
      <polygon class="cls-1" points="81.97 433.99 81.97 444.18 298.2 444.18 298.2 437.09 222.16 437.09 222.16 433.99 81.97 433.99"/>
      <polygon class="cls-1" points="134 136.54 134 103.55 181.04 103.55 181.04 94.26 210.22 94.26 210.22 75.22 297.73 75.22 297.73 68.37 203.15 68.37 203.15 58.15 297.73 58.15 297.73 56 772.93 56 772.93 61.53 901.88 61.53 901.88 28.29 858.75 28.29 858.75 0 736.95 0 736.95 28.29 673.46 28.29 673.46 9.07 334.74 9.07 334.74 0 .52 0 .52 40.83 270.3 40.83 270.3 49.19 31.68 49.19 31.68 50.4 .52 50.4 .52 63.7 31.68 63.7 31.68 110.61 73.11 110.61 73.11 127.17 .71 127.17 .71 144.58 73.11 144.58 73.11 152.78 .71 152.78 .71 202.93 40.75 202.93 40.75 249.62 .49 249.62 .49 289.32 78.13 289.32 78.13 267.43 97.09 267.43 97.09 259.3 86.42 259.3 86.42 253.79 132.17 253.79 132.17 230.98 48.89 230.98 48.89 201.76 132.17 201.76 132.17 177.7 47.87 177.7 47.87 168.65 179.87 168.65 179.87 162.61 181.04 162.61 181.04 136.54 134 136.54"/>
      <rect class="cls-1" x="687.43" y="136.54" width="110.42" height="8.25"/>
      <polygon class="cls-1" points="895.24 319.63 895.24 326.95 897.37 326.95 897.37 315.66 890.42 315.66 890.42 319.63 895.24 319.63"/>
      <rect class="cls-1" x="806.94" y="391.46" width="46.37" height="4.75"/>
      <rect class="cls-1" x="882.99" y="241.33" width="29.28" height="7.4"/>
      <polygon class="cls-1" points="890.33 428.29 850.09 428.29 850.09 449.46 895.24 449.46 895.24 456.16 850.09 456.16 850.09 470.8 565.92 470.8 565.92 481.28 48.89 481.28 48.89 462.02 298.2 462.02 298.2 454.93 81.97 454.93 81.97 458.34 .02 458.34 .02 482.88 389.82 482.88 389.82 497.39 266.06 497.39 266.06 507.96 .52 507.96 .52 586.79 79.71 586.79 79.71 629.28 304.31 629.28 304.31 639 779.51 639 779.51 635.21 874.09 635.21 874.09 617.26 779.51 617.26 779.51 605.21 867.02 605.21 867.02 571.72 896.2 571.72 896.2 555.39 943.24 555.39 943.24 497.39 896.2 497.39 896.2 419.43 890.33 419.43 890.33 428.29"/>
      <polygon class="cls-1" points="0 458.34 .02 458.34 .02 458.32 0 458.34"/>
      <rect class="cls-1" x="407.55" y="454.93" width="15.91" height="7.09"/>
      <polygon class="cls-1" points="580.41 418.19 568.65 418.19 568.65 421.31 590.28 421.31 590.28 414.28 580.41 414.28 580.41 418.19"/>
      <rect class="cls-1" x="407.55" y="437.1" width="15.91" height="7.09"/>
    </g>
  </g>
</svg>