<?xml version="1.0" encoding="UTF-8"?>
<svg id="Layer_2" data-name="Layer 2" xmlns="http://www.w3.org/2000/svg" viewBox="0 0 943.24 363.43">
  <defs>
    <style>
      .cls-1 {
        stroke-width: 0px;
      }
    </style>
  </defs>
  <g id="Layer_1-2" data-name="Layer 1">
    <path class="cls-1" d="m943.22,102.76v-13.97h-389.79v-8.25h123.76v-6.01h265.54V29.69h-79.19V5.53h-224.6V0H163.73v2.15h-94.58v10.21h94.58v6.85h-87.51v19.05h-29.18v9.29H0v32.99h47.04v45.05h42.89v21.03h-57.36v10.77H.54v6.21h32.03v34.64h43.65v20.75H30.97v12.14h45.25v8.18h250.36v4.05H.54v24.46h144.85v27.94h-69.17v13.39h193.56v10.25H41.36v27.94h43.13v16.09h121.8v-16.09h63.49v10.93h338.72v5.16h334.22v-23.22h-269.78v-4.75h238.63v-.68h31.16v-7.57h-31.16v-26.68h-41.43v-9.42h72.4v-9.9h-72.4v-4.66h72.4v-28.53h-40.04v-26.56h40.25v-22.58h-141.74v-6.15h-56.82v-7.4h166.39v-55.89h-49.3v-26.68h81.97-.02Zm-388.8,165.05v-8.16h208.95v11.29h-255.62v-3.13h46.66Zm-119.09-138.37v17.17h-72.5v-21.03h168.75v3.86h-96.25Z"/>
  </g>
</svg>