<?xml version="1.0" encoding="UTF-8"?>
<svg id="Layer_2" data-name="Layer 2" xmlns="http://www.w3.org/2000/svg" viewBox="0 0 922 409">
  <defs>
    <style>
      .cls-1 {
        stroke-width: 0px;
      }
    </style>
  </defs>
  <g id="Layer_1-2" data-name="Layer 1">
    <path class="cls-1" d="m0,0v409h922V0H0Zm896.98,124.14h0s-75.86,0-75.86,0v24.7h45.65v51.75h-154.04v6.85h52.61v5.69h131.22v20.9h-37.27v24.58h37.07v26.41h-67.03v4.32h67.03v9.17h-67.03v8.72h38.36v24.7h28.84v7h-28.84v.63h-220.92v4.4h249.76v21.5h-309.42v-4.77h-313.58v-10.12h-58.78v14.89h-112.76v-14.89h-39.93v-25.87h211.47v-9.49H94.32v-12.39h64.04v-25.87H24.26v-22.64h301.84v-3.75H94.32v-7.57h-41.89v-11.24h41.89v-19.21h-40.41v-32.07h-29.65v-5.75h29.65v-9.97h53.11v-19.47h-39.71v-41.71H23.76v-30.54h43.55v-8.6h27.01v-17.63h81.01v-6.34h-87.56v-9.45h87.56v-1.99h439.94v5.12h207.94v22.37h73.31v41.51h-245.83v5.57h-114.57v7.64h360.86v12.93h.02-.02Z"/>
  </g>
</svg>