<?xml version="1.0" encoding="UTF-8"?>
<svg id="Layer_2" data-name="Layer 2" xmlns="http://www.w3.org/2000/svg" viewBox="0 0 943.24 363.43">
  <defs>
    <style>
      .cls-1 {
        stroke-width: 0px;
      }
    </style>
  </defs>
  <g id="Layer_1-2" data-name="Layer 1">
    <path class="cls-1" d="m.02,260.67v13.97h389.79v8.25h-123.76v6.01H.52v44.83h79.19v24.16h224.6v5.53h475.2v-2.15h94.58v-10.21h-94.58v-6.85h87.51v-19.05h29.18v-9.29h47.04v-32.99h-47.04v-45.05h-42.89v-21.03h57.36v-10.77h32.03v-6.21h-32.03v-34.64h-43.65v-20.75h45.25v-12.14h-45.25v-8.18h-250.36v-4.05h326.04v-24.46h-144.85v-27.94h69.17v-13.39h-193.56v-10.25h228.42v-27.94h-43.13V0h-121.8v16.09h-63.49V5.16h-338.72V0H.52v23.22h269.78v4.75H31.68v.68H.52v7.57h31.16v26.68h41.43v9.42H.71v9.9h72.4v4.66H.71v28.53h40.04v26.56H.49v22.58h141.74v6.15h56.82v7.4H32.67v55.89h49.3v26.68H0h.02ZM388.83,95.62v8.16h-208.95v-11.29h255.62v3.13h-46.66Zm119.09,138.37v-17.17h72.5v21.03h-168.75v-3.86h96.25Z"/>
  </g>
</svg>